0
SECTION
2
HEADER
9
$INSUNITS
70
4
0
ENDSEC
0
SECTION
2
TABLES
0
TABLE
2
LTYPE
0
LTYPE
72
65
70
64
2
CONTINUOUS
3
______
73
0
40
0
0
ENDTAB
0
TABLE
2
LAYER
0
ENDTAB
0
ENDSEC
0
SECTION
2
ENTITIES
0
LINE
8
0
10
200.2
20
-39.3
11
226.8725
21
-39.3
0
ARC
8
0
10
226.8725
20
-40.5
40
1.2
50
0
51
90
0
LINE
8
0
10
228.0725
20
-40.5
11
228.0725
21
-51.5075
0
ARC
8
0
10
226.8725
20
-51.5075
40
1.2
50
270
51
360
0
LINE
8
0
10
226.8725
20
-52.7075
11
221.4
21
-52.7075
0
ARC
8
0
10
221.4
20
-53.5075
40
0.8
50
90
51
180
0
LINE
8
0
10
220.6
20
-97.6493298
11
220.6
21
-53.5075
0
ARC
8
0
10
221.4
20
-97.6493298
40
0.8
50
180
51
218.6484907
0
LINE
8
0
10
220.7752062
20
-98.1489624
11
242.7080476
21
-125.5761188
0
ARC
8
0
10
241.7708569
20
-126.3255678
40
1.2
50
319.9999988
51
398.6484907
0
LINE
8
0
10
242.6901102
20
-127.0969129
11
220.7191137
21
-153.2809268
0
ARC
8
0
10
219.7998605
20
-152.5095816
40
1.2
50
229.9999988
51
319.9999988
0
LINE
8
0
10
219.0285154
20
-153.4288349
11
205.2725359
21
-141.8861976
0
ARC
8
0
10
204.7583058
20
-142.4990331
40
0.8
50
50.0128073
51
54.9065367
0
LINE
8
0
10
205.2182353
20
-141.8444609
11
190.73587
21
-131.6685531
0
ARC
8
0
10
190.2759404
20
-132.3231253
40
0.8
50
54.9193522
51
71.0557493
0
LINE
8
0
10
190.5356588
20
-131.5664574
11
175.9933286
21
-126.5749531
0
LINE
8
0
10
175.9933286
20
-126.5749531
11
175.6944378
21
-126.5330372
0
LINE
8
0
10
175.6944378
20
-126.5330372
11
158.1956618
21
-126.5330372
0
ARC
8
0
10
158.1956618
20
-127.3330372
40
0.8
50
90
51
99.9749207
0
LINE
8
0
10
158.0570881
20
-126.5451302
11
132.27593
21
-131.0794097
0
ARC
8
0
10
132.0680695
20
-129.8975493
40
1.2
50
212.2808491
51
279.9749207
0
LINE
8
0
10
131.053541
20
-130.5384331
11
118.1252428
21
-110.0727441
0
ARC
8
0
10
117.4488905
20
-110.5
40
0.8
50
32.2808491
51
90
0
LINE
8
0
10
91
20
-109.7
11
117.4488905
21
-109.7
0
ARC
8
0
10
91
20
-108.5
40
1.2
50
180
51
270
0
LINE
8
0
10
89.8
20
-108.5
11
89.8
21
-40.5
0
ARC
8
0
10
91
20
-40.5
40
1.2
50
90
51
180
0
LINE
8
0
10
91
20
-39.3
11
125.8
21
-39.3
0
LINE
8
0
10
125.8
20
-39.3
11
125.8
21
-36.5
0
ARC
8
0
10
127
20
-36.5
40
1.2
50
90
51
180
0
LINE
8
0
10
143.8
20
-35.3
11
127
21
-35.3
0
LINE
8
0
10
143.8
20
-35.3
11
143.8
21
-34.5
0
ARC
8
0
10
145
20
-34.5
40
1.2
50
90
51
180
0
LINE
8
0
10
163
20
-33.3
11
145
21
-33.3
0
ARC
8
0
10
163
20
-34.5
40
1.2
50
0
51
90
0
LINE
8
0
10
164.2
20
-35.3
11
164.2
21
-34.5
0
LINE
8
0
10
181
20
-35.3
11
164.2
21
-35.3
0
ARC
8
0
10
181
20
-36.5
40
1.2
50
0
51
90
0
LINE
8
0
10
182.2
20
-37.3
11
182.2
21
-36.5
0
LINE
8
0
10
199
20
-37.3
11
182.2
21
-37.3
0
ARC
8
0
10
199
20
-38.5
40
1.2
50
0
51
90
0
LINE
8
0
10
200.2
20
-39.3
11
200.2
21
-38.5
0
CIRCLE
8
0
10
109
20
-41.35
40
1.1
0
CIRCLE
8
0
10
121.6
20
-111
40
1.1
0
CIRCLE
8
0
10
200.26
20
-41.39
40
1.1
0
CIRCLE
8
0
10
226.5964194
20
-109.0587454
40
1.1
0
CIRCLE
8
0
10
181
20
-88.5
40
2.75
0
LINE
8
0
10
205.575
20
-91.85
11
211.575
21
-91.85
0
LINE
8
0
10
211.575
20
-91.85
11
211.575
21
-88.05
0
LINE
8
0
10
211.575
20
-88.05
11
205.575
21
-88.05
0
LINE
8
0
10
205.575
20
-88.05
11
205.575
21
-91.85
0
ENDSEC
0
EOF