0
SECTION
2
HEADER
9
$INSUNITS
70
4
0
ENDSEC
0
SECTION
2
TABLES
0
TABLE
2
LTYPE
0
LTYPE
72
65
70
64
2
CONTINUOUS
3
______
73
0
40
0
0
ENDTAB
0
TABLE
2
LAYER
0
ENDTAB
0
ENDSEC
0
SECTION
2
ENTITIES
0
LINE
8
0
10
201.9664794
20
-37.3
11
226.8725
21
-37.3
0
ARC
8
0
10
226.8725
20
-40.5
40
3.2
50
0
51
90
0
LINE
8
0
10
230.0725
20
-40.5
11
230.0725
21
-51.5075
0
ARC
8
0
10
226.8725
20
-51.5075
40
3.2
50
270
51
360
0
LINE
8
0
10
226.8725
20
-54.7075
11
222.6
21
-54.7075
0
LINE
8
0
10
222.6
20
-97.2285257
11
222.6
21
-54.7075
0
LINE
8
0
10
222.6
20
-97.2285257
11
244.270032
21
-124.3270372
0
ARC
8
0
10
241.7708569
20
-126.3255678
40
3.2
50
319.9999988
51
398.6484907
0
LINE
8
0
10
244.2221991
20
-128.3824881
11
222.2512026
21
-154.566502
0
ARC
8
0
10
219.7998605
20
-152.5095816
40
3.2
50
229.9999988
51
319.9999988
0
LINE
8
0
10
217.7429402
20
-154.9609238
11
204.0263447
21
-143.4513336
0
LINE
8
0
10
204.0263447
20
-143.4513336
11
189.7253414
21
-133.4028583
0
LINE
8
0
10
189.7253414
20
-133.4028583
11
175.5375251
21
-128.5330372
0
LINE
8
0
10
175.5375251
20
-128.5330372
11
158.3003837
21
-128.5330372
0
LINE
8
0
10
158.3003837
20
-128.5330372
11
132.6223642
21
-133.0491771
0
ARC
8
0
10
132.0680695
20
-129.8975493
40
3.2
50
212.2808491
51
279.9749207
0
LINE
8
0
10
129.3626602
20
-131.6065726
11
116.7875591
21
-111.7
0
LINE
8
0
10
91
20
-111.7
11
116.7875591
21
-111.7
0
ARC
8
0
10
91
20
-108.5
40
3.2
50
180
51
270
0
LINE
8
0
10
87.8
20
-108.5
11
87.8
21
-40.5
0
ARC
8
0
10
91
20
-40.5
40
3.2
50
90
51
180
0
LINE
8
0
10
91
20
-37.3
11
123.8
21
-37.3
0
LINE
8
0
10
123.8
20
-37.3
11
123.8
21
-36.5
0
ARC
8
0
10
127
20
-36.5
40
3.2
50
90
51
180
0
LINE
8
0
10
142.0335206
20
-33.3
11
127
21
-33.3
0
ARC
8
0
10
145
20
-34.5
40
3.2
50
90
51
157.9756872
0
LINE
8
0
10
163
20
-31.3
11
145
21
-31.3
0
ARC
8
0
10
163
20
-34.5
40
3.2
50
22.0243128
51
90
0
LINE
8
0
10
181
20
-33.3
11
165.9664794
21
-33.3
0
ARC
8
0
10
181
20
-36.5
40
3.2
50
22.0243128
51
90
0
LINE
8
0
10
199
20
-35.3
11
183.9664794
21
-35.3
0
ARC
8
0
10
199
20
-38.5
40
3.2
50
22.0243128
51
90
0
CIRCLE
8
0
10
109
20
-41.35
40
1.1
0
CIRCLE
8
0
10
121.6
20
-111
40
1.1
0
CIRCLE
8
0
10
200.26
20
-41.39
40
1.1
0
CIRCLE
8
0
10
226.5964194
20
-109.0587454
40
1.1
0
CIRCLE
8
0
10
181
20
-88.5
40
2.75
0
LINE
8
0
10
205.575
20
-91.85
11
211.575
21
-91.85
0
LINE
8
0
10
211.575
20
-91.85
11
211.575
21
-88.05
0
LINE
8
0
10
211.575
20
-88.05
11
205.575
21
-88.05
0
LINE
8
0
10
205.575
20
-88.05
11
205.575
21
-91.85
0
ENDSEC
0
EOF