0
SECTION
2
HEADER
9
$INSUNITS
70
4
0
ENDSEC
0
SECTION
2
TABLES
0
TABLE
2
LTYPE
0
LTYPE
72
65
70
64
2
CONTINUOUS
3
______
73
0
40
0
0
ENDTAB
0
TABLE
2
LAYER
0
ENDTAB
0
ENDSEC
0
SECTION
2
ENTITIES
0
LINE
8
0
10
91.25
20
-108.25
11
108.75
21
-108.25
0
LINE
8
0
10
108.75
20
-108.25
11
108.75
21
-91.75
0
LINE
8
0
10
108.75
20
-91.75
11
91.25
21
-91.75
0
LINE
8
0
10
91.25
20
-91.75
11
91.25
21
-108.25
0
LINE
8
0
10
91.25
20
-91.25
11
108.75
21
-91.25
0
LINE
8
0
10
108.75
20
-91.25
11
108.75
21
-74.75
0
LINE
8
0
10
108.75
20
-74.75
11
91.25
21
-74.75
0
LINE
8
0
10
91.25
20
-74.75
11
91.25
21
-91.25
0
LINE
8
0
10
91.25
20
-74.25
11
108.75
21
-74.25
0
LINE
8
0
10
108.75
20
-74.25
11
108.75
21
-57.75
0
LINE
8
0
10
108.75
20
-57.75
11
91.25
21
-57.75
0
LINE
8
0
10
91.25
20
-57.75
11
91.25
21
-74.25
0
LINE
8
0
10
91.25
20
-57.25
11
108.75
21
-57.25
0
LINE
8
0
10
108.75
20
-57.25
11
108.75
21
-40.75
0
LINE
8
0
10
108.75
20
-40.75
11
91.25
21
-40.75
0
LINE
8
0
10
91.25
20
-40.75
11
91.25
21
-57.25
0
LINE
8
0
10
108.8257287
20
-97.4674094
11
126.2591359
21
-98.9926349
0
LINE
8
0
10
126.2591359
20
-98.9926349
11
126.5012333
21
-96.2254486
0
LINE
8
0
10
126.6876812
20
-94.0943393
11
127.6972057
21
-82.5554224
0
LINE
8
0
10
127.6972057
20
-82.5554224
11
110.2637985
21
-81.0301969
0
LINE
8
0
10
110.2637985
20
-81.0301969
11
108.8257287
21
-97.4674094
0
LINE
8
0
10
110.3073763
20
-80.5320995
11
127.7407835
21
-82.057325
0
LINE
8
0
10
127.7407835
20
-82.057325
11
129.1788533
21
-65.6201125
0
LINE
8
0
10
129.1788533
20
-65.6201125
11
111.7454461
21
-64.094887
0
LINE
8
0
10
111.7454461
20
-64.094887
11
110.3073763
21
-80.5320995
0
LINE
8
0
10
111.7890239
20
-63.5967896
11
129.2224311
21
-65.1220151
0
LINE
8
0
10
129.2224311
20
-65.1220151
11
130.6605009
21
-48.6848026
0
LINE
8
0
10
130.6605009
20
-48.6848026
11
113.2270937
21
-47.1595771
0
LINE
8
0
10
113.2270937
20
-47.1595771
11
111.7890239
21
-63.5967896
0
LINE
8
0
10
113.2706715
20
-46.6614797
11
130.7040787
21
-48.1867052
0
LINE
8
0
10
130.7040787
20
-48.1867052
11
132.1421485
21
-31.7494927
0
LINE
8
0
10
132.1421485
20
-31.7494927
11
114.7087413
21
-30.2242672
0
LINE
8
0
10
114.7087413
20
-30.2242672
11
113.2706715
21
-46.6614797
0
LINE
8
0
10
126.5012333
20
-96.2254486
11
143.5517537
21
-99.2319154
0
LINE
8
0
10
143.5517537
20
-99.2319154
11
146.4169486
21
-82.9825875
0
LINE
8
0
10
146.4169486
20
-82.9825875
11
129.1828129
21
-79.9437444
0
LINE
8
0
10
129.1828129
20
-79.9437444
11
126.6876812
21
-94.0943393
0
LINE
8
0
10
129.269637
20
-79.4513405
11
146.5037727
21
-82.4901836
0
LINE
8
0
10
146.5037727
20
-82.4901836
11
149.3689676
21
-66.2408557
0
LINE
8
0
10
149.3689676
20
-66.2408557
11
132.1348319
21
-63.2020126
0
LINE
8
0
10
132.1348319
20
-63.2020126
11
129.269637
21
-79.4513405
0
LINE
8
0
10
132.221656
20
-62.7096087
11
149.4557917
21
-65.7484518
0
LINE
8
0
10
149.4557917
20
-65.7484518
11
152.3209866
21
-49.4991239
0
LINE
8
0
10
152.3209866
20
-49.4991239
11
135.0868509
21
-46.4602808
0
LINE
8
0
10
135.0868509
20
-46.4602808
11
132.221656
21
-62.7096087
0
LINE
8
0
10
135.173675
20
-45.9678769
11
152.4078107
21
-49.00672
0
LINE
8
0
10
152.4078107
20
-49.00672
11
155.2730056
21
-32.7573921
0
LINE
8
0
10
155.2730056
20
-32.7573921
11
138.0388699
21
-29.718549
0
LINE
8
0
10
138.0388699
20
-29.718549
11
135.173675
21
-45.9678769
0
LINE
8
0
10
143.6968612
20
-101.2883549
11
160.9309969
21
-104.327198
0
LINE
8
0
10
160.9309969
20
-104.327198
11
163.7961918
21
-88.0778701
0
LINE
8
0
10
163.7961918
20
-88.0778701
11
146.5620561
21
-85.039027
0
LINE
8
0
10
146.5620561
20
-85.039027
11
143.6968612
21
-101.2883549
0
LINE
8
0
10
146.6488802
20
-84.5466231
11
163.8830159
21
-87.5854662
0
LINE
8
0
10
163.8830159
20
-87.5854662
11
166.7482108
21
-71.3361383
0
LINE
8
0
10
166.7482108
20
-71.3361383
11
149.5140751
21
-68.2972952
0
LINE
8
0
10
149.5140751
20
-68.2972952
11
146.6488802
21
-84.5466231
0
LINE
8
0
10
149.6008992
20
-67.8048913
11
166.8350349
21
-70.8437344
0
LINE
8
0
10
166.8350349
20
-70.8437344
11
169.7002298
21
-54.5944065
0
LINE
8
0
10
169.7002298
20
-54.5944065
11
152.4660941
21
-51.5555634
0
LINE
8
0
10
152.4660941
20
-51.5555634
11
149.6008992
21
-67.8048913
0
LINE
8
0
10
152.5529182
20
-51.0631595
11
169.7870539
21
-54.1020026
0
LINE
8
0
10
169.7870539
20
-54.1020026
11
172.6522488
21
-37.8526747
0
LINE
8
0
10
172.6522488
20
-37.8526747
11
155.4181131
21
-34.8138316
0
LINE
8
0
10
155.4181131
20
-34.8138316
11
152.5529182
21
-51.0631595
0
LINE
8
0
10
161.0761043
20
-106.3836377
11
177.4742254
21
-109.2750689
0
LINE
8
0
10
178.8603888
20
-106.3024318
11
181.1754349
21
-93.1731529
0
LINE
8
0
10
181.1754349
20
-93.1731529
11
163.9412992
21
-90.1343098
0
LINE
8
0
10
163.9412992
20
-90.1343098
11
161.0761043
21
-106.3836377
0
LINE
8
0
10
184.1274539
20
-76.4314211
11
166.8933182
21
-73.392578
0
LINE
8
0
10
166.8933182
20
-73.392578
11
164.0281233
21
-89.6419059
0
LINE
8
0
10
164.0281233
20
-89.6419059
11
181.262259
21
-92.680749
0
LINE
8
0
10
181.262259
20
-92.680749
11
184.1274539
21
-76.4314211
0
LINE
8
0
10
166.9801423
20
-72.9001741
11
184.214278
21
-75.9390172
0
LINE
8
0
10
184.214278
20
-75.9390172
11
187.0794729
21
-59.6896893
0
LINE
8
0
10
187.0794729
20
-59.6896893
11
169.8453372
21
-56.6508462
0
LINE
8
0
10
169.8453372
20
-56.6508462
11
166.9801423
21
-72.9001741
0
LINE
8
0
10
169.9321613
20
-56.1584423
11
187.166297
21
-59.1972854
0
LINE
8
0
10
187.166297
20
-59.1972854
11
190.0314919
21
-42.9479575
0
LINE
8
0
10
190.0314919
20
-42.9479575
11
172.7973562
21
-39.9091144
0
LINE
8
0
10
172.7973562
20
-39.9091144
11
169.9321613
21
-56.1584423
0
LINE
8
0
10
146.3879347
20
-121.5171981
11
162.248321
21
-128.9130176
0
LINE
8
0
10
162.248321
20
-128.9130176
11
169.2215223
21
-113.9589391
0
LINE
8
0
10
169.2215223
20
-113.9589391
11
153.361136
21
-106.5631196
0
LINE
8
0
10
153.361136
20
-106.5631196
11
146.3879347
21
-121.5171981
0
LINE
8
0
10
162.7014749
20
-129.1243268
11
178.5618612
21
-136.5201463
0
LINE
8
0
10
178.5618612
20
-136.5201463
11
185.5350625
21
-121.5660678
0
LINE
8
0
10
185.5350625
20
-121.5660678
11
169.6746762
21
-114.1702483
0
LINE
8
0
10
169.6746762
20
-114.1702483
11
162.7014749
21
-129.1243268
0
LINE
8
0
10
176.5306155
20
-111.2986468
11
192.3910018
21
-118.6944663
0
LINE
8
0
10
192.3910018
20
-118.6944663
11
199.3642031
21
-103.7403878
0
LINE
8
0
10
199.3642031
20
-103.7403878
11
183.5038168
21
-96.3445683
0
LINE
8
0
10
183.5038168
20
-96.3445683
11
178.8603888
21
-106.3024318
0
LINE
8
0
10
177.4742254
20
-109.2750689
11
176.5306155
21
-111.2986468
0
LINE
8
0
10
179.015015
20
-136.7314555
11
194.8754013
21
-144.127275
0
LINE
8
0
10
194.8754013
20
-144.127275
11
201.8486026
21
-129.1731965
0
LINE
8
0
10
201.8486026
20
-129.1731965
11
185.9882163
21
-121.777377
0
LINE
8
0
10
185.9882163
20
-121.777377
11
179.015015
21
-136.7314555
0
ENDSEC
0
EOF