0
SECTION
2
HEADER
9
$INSUNITS
70
4
0
ENDSEC
0
SECTION
2
TABLES
0
TABLE
2
LTYPE
0
LTYPE
72
65
70
64
2
CONTINUOUS
3
______
73
0
40
0
0
ENDTAB
0
TABLE
2
LAYER
0
ENDTAB
0
ENDSEC
0
SECTION
2
ENTITIES
0
LINE
8
0
10
110.5435778
20
-98.8724765
11
126.8973373
21
-100.3032451
0
LINE
8
0
10
127.4390125
20
-99.8487257
11
127.5800275
21
-98.2369159
0
LINE
8
0
10
110
20
-69.7032856
11
113.5288647
21
-29.3681764
0
LINE
8
0
10
130.4281679
20
-65.6825226
11
133.4527586
21
-31.1112913
0
LINE
8
0
10
132.9982392
20
-30.5696161
11
114.0705399
21
-28.913657
0
LINE
8
0
10
128.164949
20
-97.7880899
11
142.1036838
21
-100.2458649
0
LINE
8
0
10
130.4281679
20
-65.6825226
11
136.9380964
21
-28.762883
0
LINE
8
0
10
156.4606033
20
-33.2206541
11
156.6342514
21
-32.2358465
0
LINE
8
0
10
156.2286716
20
-31.6566185
11
137.5173244
21
-28.3573032
0
LINE
8
0
10
142.7411952
20
-102.3891285
11
159.4829269
21
-105.3411475
0
LINE
8
0
10
142.5092636
20
-100.8250929
11
142.3356154
21
-101.8099005
0
LINE
8
0
10
173.8398464
20
-38.3159369
11
174.0134946
21
-37.3311291
0
LINE
8
0
10
173.6079148
20
-36.7519011
11
156.8661831
21
-33.7998821
0
LINE
8
0
10
160.1204383
20
-107.4844113
11
175.0111688
21
-110.1100488
0
LINE
8
0
10
181.7401345
20
-97.1690453
11
191.3927377
21
-42.4264119
0
LINE
8
0
10
159.8885067
20
-105.9203755
11
159.7148585
21
-106.9051833
0
LINE
8
0
10
190.9871579
20
-41.8471839
11
174.2454262
21
-38.8951649
0
LINE
8
0
10
145.179931
20
-122.3331191
11
195.0268593
21
-145.5771235
0
LINE
8
0
10
153.209678
20
-105.1132711
11
203.0566063
21
-128.3572755
0
LINE
8
0
10
152.545215
20
-105.3551159
11
144.9380862
21
-121.6686561
0
LINE
8
0
10
175.3226118
20
-112.1145678
11
192.5424598
21
-120.1443148
0
LINE
8
0
10
193.2069228
20
-119.90247
11
200.8140516
21
-103.5889298
0
LINE
8
0
10
200.5722068
20
-102.9244668
11
183.3523588
21
-94.8947198
0
LINE
8
0
10
182.6878958
20
-95.1365646
11
181.7401345
21
-97.1690453
0
LINE
8
0
10
175.3774986
20
-110.8137619
11
175.080767
21
-111.4501048
0
LINE
8
0
10
195.6913223
20
-145.3352787
11
203.2984511
21
-129.0217385
0
ARC
8
0
10
126.9409152
20
-99.8051478
40
0.5
50
265.0000024
51
355.0000024
0
ARC
8
0
10
128.0781249
20
-98.2804938
40
0.5
50
79.9999992
51
175.0000024
0
ARC
8
0
10
142.0168597
20
-100.7382688
40
0.5
50
349.9999992
51
79.9999992
0
ARC
8
0
10
142.8280193
20
-101.8967246
40
0.5
50
169.9999992
51
259.9999992
0
ARC
8
0
10
159.3961028
20
-105.8335514
40
0.5
50
349.9999992
51
79.9999992
0
ARC
8
0
10
160.2072624
20
-106.9920074
40
0.5
50
169.9999992
51
259.9999992
0
ARC
8
0
10
174.9243447
20
-110.6024527
40
0.5
50
334.9999983
51
79.9999992
0
ARC
8
0
10
175.5339209
20
-111.6614139
40
0.5
50
154.9999983
51
244.9999983
0
ARC
8
0
10
192.7537689
20
-119.6911609
40
0.5
50
244.9999983
51
334.9999983
0
ARC
8
0
10
200.3608977
20
-103.3776207
40
0.5
50
334.9999983
51
64.9999983
0
ARC
8
0
10
183.1410497
20
-95.3478737
40
0.5
50
64.9999983
51
154.9999983
0
ARC
8
0
10
190.9003338
20
-42.3395878
40
0.5
50
349.9999992
51
79.9999992
0
ARC
8
0
10
174.3322503
20
-38.402761
40
0.5
50
169.9999992
51
259.9999992
0
ARC
8
0
10
173.5210907
20
-37.244305
40
0.5
50
349.9999992
51
79.9999992
0
ARC
8
0
10
156.9530072
20
-33.3074782
40
0.5
50
169.9999992
51
259.9999992
0
ARC
8
0
10
156.1418475
20
-32.1490224
40
0.5
50
349.9999992
51
79.9999992
0
ARC
8
0
10
137.4305003
20
-28.8497071
40
0.5
50
79.9999992
51
169.9999992
0
ARC
8
0
10
132.9546613
20
-31.0677134
40
0.5
50
355.0000024
51
85.0000024
0
ARC
8
0
10
114.026962
20
-29.4117543
40
0.5
50
85.0000024
51
175.0000024
0
ARC
8
0
10
195.2381684
20
-145.1239696
40
0.5
50
244.9999983
51
334.9999983
0
ARC
8
0
10
202.8452972
20
-128.8104294
40
0.5
50
334.9999983
51
64.9999983
0
ARC
8
0
10
152.9983689
20
-105.566425
40
0.5
50
64.9999983
51
154.9999983
0
ARC
8
0
10
145.3912401
20
-121.8799652
40
0.5
50
154.9999983
51
244.9999983
0
LINE
8
0
10
90.5
20
-109.5
11
109.5
21
-109.5
0
LINE
8
0
10
110
20
-109
11
110
21
-99.3705738
0
LINE
8
0
10
110
20
-69.7032856
11
110
21
-40
0
LINE
8
0
10
90
20
-109
11
90
21
-40
0
LINE
8
0
10
109.5
20
-39.5
11
90.5
21
-39.5
0
ARC
8
0
10
109.5
20
-109
40
0.5
50
270
51
0
0
ARC
8
0
10
109.5
20
-40
40
0.5
50
0
51
90
0
ARC
8
0
10
90.5
20
-40
40
0.5
50
90
51
180
0
ARC
8
0
10
90.5
20
-109
40
0.5
50
180
51
270
0
ARC
8
0
10
110.5
20
-99.3705738
40
0.5
50
85.0000024
51
180
0
ENDSEC
0
EOF