0
SECTION
2
HEADER
9
$INSUNITS
70
4
0
ENDSEC
0
SECTION
2
TABLES
0
TABLE
2
LTYPE
0
LTYPE
72
65
70
64
2
CONTINUOUS
3
______
73
0
40
0
0
ENDTAB
0
TABLE
2
LAYER
0
ENDTAB
0
ENDSEC
0
SECTION
2
ENTITIES
0
LINE
8
0
10
107.5156132
20
-97.7515927
11
126.2269604
21
-101.050908
0
LINE
8
0
10
126.8061884
20
-100.6453282
11
126.9798366
21
-99.6605205
0
LINE
8
0
10
107.1100334
20
-97.1723647
11
119.0917576
21
-29.2206298
0
LINE
8
0
10
136.4127173
20
-31.767069
11
119.6709856
21
-28.81505
0
LINE
8
0
10
127.5590646
20
-99.2549407
11
142.3311809
21
-101.8596634
0
LINE
8
0
10
156.6881003
20
-34.8344527
11
156.8617485
21
-33.849645
0
LINE
8
0
10
156.4561687
20
-33.270417
11
137.7448215
21
-29.9711017
0
LINE
8
0
10
137.1655935
20
-30.3766815
11
136.9919453
21
-31.3614892
0
LINE
8
0
10
142.9686923
20
-104.0029271
11
159.7104241
21
-106.9549461
0
LINE
8
0
10
142.7367607
20
-102.4388914
11
142.5631125
21
-103.4236991
0
LINE
8
0
10
174.0673435
20
-39.9297354
11
174.2409917
21
-38.9449277
0
LINE
8
0
10
173.8354119
20
-38.3656997
11
157.0936801
21
-35.4136807
0
LINE
8
0
10
160.3479355
20
-109.0982098
11
175.74844
21
-111.8137342
0
LINE
8
0
10
182.2916636
20
-96.9451674
11
191.6202349
21
-44.0402104
0
LINE
8
0
10
160.1160039
20
-107.5341741
11
159.9423557
21
-108.5189818
0
LINE
8
0
10
191.2146551
20
-43.4609824
11
174.4729233
21
-40.5089634
0
LINE
8
0
10
145.4074282
20
-123.9469176
11
195.2543565
21
-147.190922
0
LINE
8
0
10
153.4371752
20
-106.7270696
11
203.2841035
21
-129.971074
0
LINE
8
0
10
152.7727122
20
-106.9689144
11
145.1655834
21
-123.2824546
0
LINE
8
0
10
176.0032629
20
-113.9396754
11
193.2231109
21
-121.9694224
0
LINE
8
0
10
193.8875739
20
-121.7275776
11
201.4947027
21
-105.4140374
0
LINE
8
0
10
201.2528579
20
-104.7495744
11
184.0330099
21
-96.7198274
0
LINE
8
0
10
183.3685469
20
-96.9616722
11
183.2372214
21
-97.2433006
0
LINE
8
0
10
176.1147698
20
-112.5174473
11
175.7614181
21
-113.2752124
0
LINE
8
0
10
195.9188195
20
-146.9490772
11
203.5259483
21
-130.635537
0
ARC
8
0
10
126.3137845
20
-100.5585041
40
0.5
50
259.9999992
51
349.9999992
0
ARC
8
0
10
127.4722405
20
-99.7473446
40
0.5
50
79.9999992
51
169.9999992
0
ARC
8
0
10
142.2443568
20
-102.3520673
40
0.5
50
349.9999992
51
79.9999992
0
ARC
8
0
10
143.0555164
20
-103.5105232
40
0.5
50
169.9999992
51
259.9999992
0
ARC
8
0
10
159.6236
20
-107.44735
40
0.5
50
349.9999992
51
79.9999992
0
ARC
8
0
10
160.4347596
20
-108.6058059
40
0.5
50
169.9999992
51
259.9999992
0
ARC
8
0
10
175.6616159
20
-112.3061381
40
0.5
50
334.9999983
51
79.9999992
0
ARC
8
0
10
176.214572
20
-113.4865215
40
0.5
50
154.9999983
51
244.9999983
0
ARC
8
0
10
193.43442
20
-121.5162685
40
0.5
50
244.9999983
51
334.9999983
0
ARC
8
0
10
201.0415488
20
-105.2027283
40
0.5
50
334.9999983
51
64.9999983
0
ARC
8
0
10
183.8217008
20
-97.1729813
40
0.5
50
64.9999983
51
154.9999983
0
ARC
8
0
10
182.7840675
20
-97.0319915
40
0.5
50
169.9999992
51
334.9999983
0
ARC
8
0
10
191.127831
20
-43.9533863
40
0.5
50
349.9999992
51
79.9999992
0
ARC
8
0
10
174.5597474
20
-40.0165595
40
0.5
50
169.9999992
51
259.9999992
0
ARC
8
0
10
173.7485878
20
-38.8581036
40
0.5
50
349.9999992
51
79.9999992
0
ARC
8
0
10
157.1805042
20
-34.9212768
40
0.5
50
169.9999992
51
259.9999992
0
ARC
8
0
10
156.3693446
20
-33.7628209
40
0.5
50
349.9999992
51
79.9999992
0
ARC
8
0
10
137.6579974
20
-30.4635056
40
0.5
50
79.9999992
51
169.9999992
0
ARC
8
0
10
136.4995414
20
-31.2746651
40
0.5
50
259.9999992
51
349.9999992
0
ARC
8
0
10
119.5841615
20
-29.3074539
40
0.5
50
79.9999992
51
169.9999992
0
ARC
8
0
10
107.6024373
20
-97.2591888
40
0.5
50
169.9999992
51
259.9999992
0
ARC
8
0
10
195.4656656
20
-146.7377681
40
0.5
50
244.9999983
51
334.9999983
0
ARC
8
0
10
203.0727944
20
-130.4242279
40
0.5
50
334.9999983
51
64.9999983
0
ARC
8
0
10
153.2258661
20
-107.1802235
40
0.5
50
64.9999983
51
154.9999983
0
ARC
8
0
10
145.6187373
20
-123.4937637
40
0.5
50
154.9999983
51
244.9999983
0
ENDSEC
0
EOF