0
SECTION
2
HEADER
9
$INSUNITS
70
4
0
ENDSEC
0
SECTION
2
TABLES
0
TABLE
2
LTYPE
0
LTYPE
72
65
70
64
2
CONTINUOUS
3
______
73
0
40
0
0
ENDTAB
0
TABLE
2
LAYER
0
ENDTAB
0
ENDSEC
0
SECTION
2
ENTITIES
0
LINE
8
0
10
110.5868241
20
-98.29313
11
126.2269604
21
-101.050908
0
LINE
8
0
10
126.8061884
20
-100.6453282
11
126.9798366
21
-99.6605205
0
LINE
8
0
10
116.5846581
20
-43.4390974
11
119.0917576
21
-29.2206298
0
LINE
8
0
10
136.4127173
20
-31.767069
11
119.6709856
21
-28.81505
0
LINE
8
0
10
127.5590646
20
-99.2549407
11
142.3311809
21
-101.8596634
0
LINE
8
0
10
156.6881003
20
-34.8344527
11
156.8617485
21
-33.849645
0
LINE
8
0
10
156.4561687
20
-33.270417
11
137.7448215
21
-29.9711017
0
LINE
8
0
10
137.1655935
20
-30.3766815
11
136.9919453
21
-31.3614892
0
LINE
8
0
10
142.9686923
20
-104.0029271
11
152.5963168
21
-105.700537
0
LINE
8
0
10
142.7367607
20
-102.4388914
11
142.5631125
21
-103.4236991
0
LINE
8
0
10
174.0673435
20
-39.9297354
11
174.2409917
21
-38.9449277
0
LINE
8
0
10
173.8354119
20
-38.3656997
11
157.0936801
21
-35.4136807
0
LINE
8
0
10
182.8523327
20
-93.7654552
11
191.6202349
21
-44.0402104
0
LINE
8
0
10
191.2146551
20
-43.4609824
11
174.4729233
21
-40.5089634
0
LINE
8
0
10
145.4074282
20
-123.9469176
11
195.2543565
21
-147.190922
0
LINE
8
0
10
149.1727883
20
-114.6889762
11
145.1655834
21
-123.2824546
0
LINE
8
0
10
149.1729218
20
-114.6886895
11
149.1727883
21
-114.6889762
0
LINE
8
0
10
193.8428603
20
-121.8234664
11
201.4947027
21
-105.4140374
0
LINE
8
0
10
183.7915535
20
-96.6072345
11
201.2528579
21
-104.7495744
0
LINE
8
0
10
195.9188195
20
-146.9490772
11
203.5706619
21
-130.5396482
0
ARC
8
0
10
126.3137845
20
-100.5585041
40
0.5
50
259.9999992
51
349.9999992
0
ARC
8
0
10
127.4722405
20
-99.7473446
40
0.5
50
79.9999992
51
169.9999992
0
ARC
8
0
10
142.2443568
20
-102.3520673
40
0.5
50
349.9999992
51
79.9999992
0
ARC
8
0
10
143.0555164
20
-103.5105232
40
0.5
50
169.9999992
51
259.9999992
0
ARC
8
0
10
201.0415488
20
-105.2027283
40
0.5
50
334.9999983
51
64.9999983
0
ARC
8
0
10
191.127831
20
-43.9533863
40
0.5
50
349.9999992
51
79.9999992
0
ARC
8
0
10
174.5597474
20
-40.0165595
40
0.5
50
169.9999992
51
259.9999992
0
ARC
8
0
10
173.7485878
20
-38.8581036
40
0.5
50
349.9999992
51
79.9999992
0
ARC
8
0
10
157.1805042
20
-34.9212768
40
0.5
50
169.9999992
51
259.9999992
0
ARC
8
0
10
156.3693446
20
-33.7628209
40
0.5
50
349.9999992
51
79.9999992
0
ARC
8
0
10
137.6579974
20
-30.4635056
40
0.5
50
79.9999992
51
169.9999992
0
ARC
8
0
10
136.4995414
20
-31.2746651
40
0.5
50
259.9999992
51
349.9999992
0
ARC
8
0
10
119.5841615
20
-29.3074539
40
0.5
50
79.9999992
51
169.9999992
0
ARC
8
0
10
195.4656656
20
-146.7377681
40
0.5
50
244.9999983
51
334.9999983
0
ARC
8
0
10
145.6187373
20
-123.4937637
40
0.5
50
154.9999983
51
244.9999983
0
LINE
8
0
10
90.5
20
-109.5
11
109.5
21
-109.5
0
LINE
8
0
10
110
20
-109
11
110
21
-98.7855339
0
LINE
8
0
10
110
20
-45.6469598
11
110
21
-40
0
LINE
8
0
10
90
20
-109
11
90
21
-40
0
LINE
8
0
10
109.5
20
-39.5
11
90.5
21
-39.5
0
ARC
8
0
10
109.5
20
-109
40
0.5
50
270
51
0
0
ARC
8
0
10
109.5
20
-40
40
0.5
50
0
51
90
0
ARC
8
0
10
90.5
20
-40
40
0.5
50
90
51
180
0
ARC
8
0
10
90.5
20
-109
40
0.5
50
180
51
270
0
ARC
8
0
10
110.5
20
-98.7855339
40
0.5
50
79.9999992
51
180
0
LINE
8
0
10
110
20
-45.6469598
11
116.5846581
21
-43.4390974
0
LINE
8
0
10
182.8638185
20
-93.8211044
11
183.5197181
21
-96.2828102
0
LINE
8
0
10
193.9847859
20
-122.4261028
11
203.4287363
21
-129.9370118
0
LINE
8
0
10
149.1869136
20
-114.6555718
11
152.5963168
21
-105.700537
0
ARC
8
0
10
183.3469631
20
-93.6923748
40
0.5
50
188.4045047
51
194.9193529
0
ARC
8
0
10
184.0028627
20
-96.1540806
40
0.5
50
194.9193529
51
244.9999983
0
ARC
8
0
10
194.2960142
20
-122.0347755
40
0.5
50
154.9999983
51
231.5042643
0
ARC
8
0
10
203.117508
20
-130.3283391
40
0.5
50
334.9999983
51
51.5042643
0
ARC
8
0
10
148.7196344
20
-114.477667
40
0.5
50
335.0362336
51
339.156935
0
ENDSEC
0
EOF