0
SECTION
2
HEADER
9
$INSUNITS
70
4
0
ENDSEC
0
SECTION
2
TABLES
0
TABLE
2
LTYPE
0
LTYPE
72
65
70
64
2
CONTINUOUS
3
______
73
0
40
0
0
ENDTAB
0
TABLE
2
LAYER
0
ENDTAB
0
ENDSEC
0
SECTION
2
ENTITIES
0
LINE
8
0
10
110.5868241
20
-98.29313
11
126.2269604
21
-101.050908
0
LINE
8
0
10
126.8061884
20
-100.6453282
11
126.9798366
21
-99.6605205
0
LINE
8
0
10
116.5846581
20
-43.4390974
11
119.0917576
21
-29.2206298
0
LINE
8
0
10
136.4127173
20
-31.767069
11
119.6709856
21
-28.81505
0
LINE
8
0
10
127.5590646
20
-99.2549407
11
142.3311809
21
-101.8596634
0
LINE
8
0
10
156.6881003
20
-34.8344527
11
156.8617485
21
-33.849645
0
LINE
8
0
10
156.4561687
20
-33.270417
11
137.7448215
21
-29.9711017
0
LINE
8
0
10
137.1655935
20
-30.3766815
11
136.9919453
21
-31.3614892
0
LINE
8
0
10
142.9686923
20
-104.0029271
11
152.5963168
21
-105.700537
0
LINE
8
0
10
142.7367607
20
-102.4388914
11
142.5631125
21
-103.4236991
0
LINE
8
0
10
174.0673435
20
-39.9297354
11
174.2409917
21
-38.9449277
0
LINE
8
0
10
173.8354119
20
-38.3656997
11
157.0936801
21
-35.4136807
0
LINE
8
0
10
182.8523327
20
-93.7654552
11
191.6202349
21
-44.0402104
0
LINE
8
0
10
191.2146551
20
-43.4609824
11
174.4729233
21
-40.5089634
0
LINE
8
0
10
145.4074282
20
-123.9469176
11
195.2543565
21
-147.190922
0
LINE
8
0
10
149.1727883
20
-114.6889762
11
145.1655834
21
-123.2824546
0
LINE
8
0
10
149.1729218
20
-114.6886895
11
149.1727883
21
-114.6889762
0
LINE
8
0
10
193.8428603
20
-121.8234664
11
201.4947027
21
-105.4140374
0
LINE
8
0
10
183.7915535
20
-96.6072345
11
201.2528579
21
-104.7495744
0
LINE
8
0
10
195.9188195
20
-146.9490772
11
203.5706619
21
-130.5396482
0
ARC
8
0
10
126.3137845
20
-100.5585041
40
0.5
50
259.9999992
51
349.9999992
0
ARC
8
0
10
127.4722405
20
-99.7473446
40
0.5
50
79.9999992
51
169.9999992
0
ARC
8
0
10
142.2443568
20
-102.3520673
40
0.5
50
349.9999992
51
79.9999992
0
ARC
8
0
10
143.0555164
20
-103.5105232
40
0.5
50
169.9999992
51
259.9999992
0
ARC
8
0
10
201.0415488
20
-105.2027283
40
0.5
50
334.9999983
51
64.9999983
0
ARC
8
0
10
191.127831
20
-43.9533863
40
0.5
50
349.9999992
51
79.9999992
0
ARC
8
0
10
174.5597474
20
-40.0165595
40
0.5
50
169.9999992
51
259.9999992
0
ARC
8
0
10
173.7485878
20
-38.8581036
40
0.5
50
349.9999992
51
79.9999992
0
ARC
8
0
10
157.1805042
20
-34.9212768
40
0.5
50
169.9999992
51
259.9999992
0
ARC
8
0
10
156.3693446
20
-33.7628209
40
0.5
50
349.9999992
51
79.9999992
0
ARC
8
0
10
137.6579974
20
-30.4635056
40
0.5
50
79.9999992
51
169.9999992
0
ARC
8
0
10
136.4995414
20
-31.2746651
40
0.5
50
259.9999992
51
349.9999992
0
ARC
8
0
10
119.5841615
20
-29.3074539
40
0.5
50
79.9999992
51
169.9999992
0
ARC
8
0
10
195.4656656
20
-146.7377681
40
0.5
50
244.9999983
51
334.9999983
0
ARC
8
0
10
145.6187373
20
-123.4937637
40
0.5
50
154.9999983
51
244.9999983
0
LINE
8
0
10
90.5
20
-109.5
11
109.5
21
-109.5
0
LINE
8
0
10
110
20
-109
11
110
21
-98.7855339
0
LINE
8
0
10
110
20
-45.6469598
11
110
21
-40
0
LINE
8
0
10
90
20
-109
11
90
21
-40
0
LINE
8
0
10
109.5
20
-39.5
11
90.5
21
-39.5
0
ARC
8
0
10
109.5
20
-109
40
0.5
50
270
51
0
0
ARC
8
0
10
109.5
20
-40
40
0.5
50
0
51
90
0
ARC
8
0
10
90.5
20
-40
40
0.5
50
90
51
180
0
ARC
8
0
10
90.5
20
-109
40
0.5
50
180
51
270
0
ARC
8
0
10
110.5
20
-98.7855339
40
0.5
50
79.9999992
51
180
0
LINE
8
0
10
110
20
-45.6469598
11
116.5846581
21
-43.4390974
0
LINE
8
0
10
182.8638185
20
-93.8211044
11
183.5197181
21
-96.2828102
0
LINE
8
0
10
193.9847859
20
-122.4261028
11
203.4287363
21
-129.9370118
0
LINE
8
0
10
149.1869136
20
-114.6555718
11
152.5963168
21
-105.700537
0
ARC
8
0
10
183.3469631
20
-93.6923748
40
0.5
50
188.4045047
51
194.9193529
0
ARC
8
0
10
184.0028627
20
-96.1540806
40
0.5
50
194.9193529
51
244.9999983
0
ARC
8
0
10
194.2960142
20
-122.0347755
40
0.5
50
154.9999983
51
231.5042643
0
ARC
8
0
10
203.117508
20
-130.3283391
40
0.5
50
334.9999983
51
51.5042643
0
ARC
8
0
10
148.7196344
20
-114.477667
40
0.5
50
335.0362336
51
339.156935
0
LINE
8
0
10
91.25
20
-108.25
11
108.75
21
-108.25
0
LINE
8
0
10
108.75
20
-108.25
11
108.75
21
-96.6999651
0
LINE
8
0
10
108.75
20
-95.0701149
11
108.75
21
-91.75
0
LINE
8
0
10
108.75
20
-91.75
11
91.25
21
-91.75
0
LINE
8
0
10
91.25
20
-91.75
11
91.25
21
-108.25
0
LINE
8
0
10
91.25
20
-91.25
11
108.75
21
-91.25
0
LINE
8
0
10
108.75
20
-91.25
11
108.75
21
-74.75
0
LINE
8
0
10
108.75
20
-74.75
11
91.25
21
-74.75
0
LINE
8
0
10
91.25
20
-74.75
11
91.25
21
-91.25
0
LINE
8
0
10
91.25
20
-74.25
11
108.75
21
-74.25
0
LINE
8
0
10
108.75
20
-74.25
11
108.75
21
-57.75
0
LINE
8
0
10
108.75
20
-57.75
11
91.25
21
-57.75
0
LINE
8
0
10
91.25
20
-57.75
11
91.25
21
-74.25
0
LINE
8
0
10
91.25
20
-57.25
11
108.75
21
-57.25
0
LINE
8
0
10
108.75
20
-57.25
11
108.75
21
-40.75
0
LINE
8
0
10
108.75
20
-40.75
11
91.25
21
-40.75
0
LINE
8
0
10
91.25
20
-40.75
11
91.25
21
-57.25
0
LINE
8
0
10
108.75
20
-96.6999651
11
125.7054149
21
-99.6896622
0
LINE
8
0
10
125.7054149
20
-99.6896622
11
128.5706098
21
-83.4403343
0
LINE
8
0
10
128.5706098
20
-83.4403343
11
111.3364741
21
-80.4014912
0
LINE
8
0
10
111.3364741
20
-80.4014912
11
108.75
21
-95.0701149
0
LINE
8
0
10
111.4232982
20
-79.9090873
11
128.6574339
21
-82.9479304
0
LINE
8
0
10
128.6574339
20
-82.9479304
11
131.5226288
21
-66.6986025
0
LINE
8
0
10
131.5226288
20
-66.6986025
11
114.2884931
21
-63.6597594
0
LINE
8
0
10
114.2884931
20
-63.6597594
11
111.4232982
21
-79.9090873
0
LINE
8
0
10
114.3753172
20
-63.1673555
11
131.6094529
21
-66.2061986
0
LINE
8
0
10
131.6094529
20
-66.2061986
11
134.4746478
21
-49.9568707
0
LINE
8
0
10
134.4746478
20
-49.9568707
11
117.2405121
21
-46.9180276
0
LINE
8
0
10
117.2405121
20
-46.9180276
11
114.3753172
21
-63.1673555
0
LINE
8
0
10
117.3273362
20
-46.4256237
11
134.5614719
21
-49.4644668
0
LINE
8
0
10
134.5614719
20
-49.4644668
11
137.4266668
21
-33.2151389
0
LINE
8
0
10
137.4266668
20
-33.2151389
11
120.1925311
21
-30.1762958
0
LINE
8
0
10
120.1925311
20
-30.1762958
11
117.3273362
21
-46.4256237
0
LINE
8
0
10
126.5451151
20
-97.8068708
11
143.7792508
21
-100.8457139
0
LINE
8
0
10
143.7792508
20
-100.8457139
11
146.6444457
21
-84.596386
0
LINE
8
0
10
146.6444457
20
-84.596386
11
129.41031
21
-81.5575429
0
LINE
8
0
10
129.41031
20
-81.5575429
11
126.5451151
21
-97.8068708
0
LINE
8
0
10
129.4971341
20
-81.065139
11
146.7312698
21
-84.1039821
0
LINE
8
0
10
146.7312698
20
-84.1039821
11
149.5964647
21
-67.8546542
0
LINE
8
0
10
149.5964647
20
-67.8546542
11
132.362329
21
-64.8158111
0
LINE
8
0
10
132.362329
20
-64.8158111
11
129.4971341
21
-81.065139
0
LINE
8
0
10
132.4491531
20
-64.3234072
11
149.6832888
21
-67.3622503
0
LINE
8
0
10
149.6832888
20
-67.3622503
11
152.5484837
21
-51.1129224
0
LINE
8
0
10
152.5484837
20
-51.1129224
11
135.314348
21
-48.0740793
0
LINE
8
0
10
135.314348
20
-48.0740793
11
132.4491531
21
-64.3234072
0
LINE
8
0
10
135.4011721
20
-47.5816754
11
152.6353078
21
-50.6205185
0
LINE
8
0
10
152.6353078
20
-50.6205185
11
155.5005027
21
-34.3711906
0
LINE
8
0
10
155.5005027
20
-34.3711906
11
138.266367
21
-31.3323475
0
LINE
8
0
10
138.266367
20
-31.3323475
11
135.4011721
21
-47.5816754
0
LINE
8
0
10
143.9243583
20
-102.9021535
11
161.158494
21
-105.9409966
0
LINE
8
0
10
161.158494
20
-105.9409966
11
164.0236889
21
-89.6916687
0
LINE
8
0
10
164.0236889
20
-89.6916687
11
146.7895532
21
-86.6528256
0
LINE
8
0
10
146.7895532
20
-86.6528256
11
143.9243583
21
-102.9021535
0
LINE
8
0
10
146.8763773
20
-86.1604217
11
164.110513
21
-89.1992648
0
LINE
8
0
10
164.110513
20
-89.1992648
11
166.9757079
21
-72.9499369
0
LINE
8
0
10
166.9757079
20
-72.9499369
11
149.7415722
21
-69.9110938
0
LINE
8
0
10
149.7415722
20
-69.9110938
11
146.8763773
21
-86.1604217
0
LINE
8
0
10
149.8283963
20
-69.4186899
11
167.062532
21
-72.457533
0
LINE
8
0
10
167.062532
20
-72.457533
11
169.9277269
21
-56.2082051
0
LINE
8
0
10
169.9277269
20
-56.2082051
11
152.6935912
21
-53.169362
0
LINE
8
0
10
152.6935912
20
-53.169362
11
149.8283963
21
-69.4186899
0
LINE
8
0
10
152.7804153
20
-52.6769581
11
170.014551
21
-55.7158012
0
LINE
8
0
10
170.014551
20
-55.7158012
11
172.8797459
21
-39.4664733
0
LINE
8
0
10
172.8797459
20
-39.4664733
11
155.6456102
21
-36.4276302
0
LINE
8
0
10
155.6456102
20
-36.4276302
11
152.7804153
21
-52.6769581
0
LINE
8
0
10
161.3036015
20
-107.9974362
11
178.2114966
21
-110.9787543
0
LINE
8
0
10
178.7524235
20
-109.8187327
11
181.4029321
21
-94.7869514
0
LINE
8
0
10
181.4029321
20
-94.7869514
11
164.1687964
21
-91.7481083
0
LINE
8
0
10
164.1687964
20
-91.7481083
11
161.3036015
21
-107.9974362
0
LINE
8
0
10
184.3549511
20
-78.0452196
11
167.1208154
21
-75.0063765
0
LINE
8
0
10
167.1208154
20
-75.0063765
11
164.2556205
21
-91.2557044
0
LINE
8
0
10
164.2556205
20
-91.2557044
11
181.4897562
21
-94.2945475
0
LINE
8
0
10
181.4897562
20
-94.2945475
11
184.3549511
21
-78.0452196
0
LINE
8
0
10
167.2076395
20
-74.5139726
11
184.4417752
21
-77.5528157
0
LINE
8
0
10
184.4417752
20
-77.5528157
11
187.3069701
21
-61.3034878
0
LINE
8
0
10
187.3069701
20
-61.3034878
11
170.0728344
21
-58.2646447
0
LINE
8
0
10
170.0728344
20
-58.2646447
11
167.2076395
21
-74.5139726
0
LINE
8
0
10
170.1596585
20
-57.7722408
11
187.3937942
21
-60.8110839
0
LINE
8
0
10
187.3937942
20
-60.8110839
11
190.2589891
21
-44.561756
0
LINE
8
0
10
190.2589891
20
-44.561756
11
173.0248534
21
-41.5229129
0
LINE
8
0
10
173.0248534
20
-41.5229129
11
170.1596585
21
-57.7722408
0
LINE
8
0
10
146.6154319
20
-123.1309966
11
162.4758182
21
-130.5268161
0
LINE
8
0
10
162.4758182
20
-130.5268161
11
169.4490195
21
-115.5727376
0
LINE
8
0
10
169.4490195
20
-115.5727376
11
153.5886332
21
-108.1769181
0
LINE
8
0
10
153.5886332
20
-108.1769181
11
146.6154319
21
-123.1309966
0
LINE
8
0
10
162.9289721
20
-130.7381253
11
178.7893584
21
-138.1339448
0
LINE
8
0
10
178.7893584
20
-138.1339448
11
185.7625597
21
-123.1798663
0
LINE
8
0
10
185.7625597
20
-123.1798663
11
169.9021734
21
-115.7840468
0
LINE
8
0
10
169.9021734
20
-115.7840468
11
162.9289721
21
-130.7381253
0
LINE
8
0
10
177.2112666
20
-113.1237544
11
193.0716529
21
-120.5195739
0
LINE
8
0
10
193.0716529
20
-120.5195739
11
200.0448542
21
-105.5654954
0
LINE
8
0
10
200.0448542
20
-105.5654954
11
184.1844679
21
-98.1696759
0
LINE
8
0
10
184.1844679
20
-98.1696759
11
178.7524235
21
-109.8187327
0
LINE
8
0
10
178.2114966
20
-110.9787543
11
177.2112666
21
-113.1237544
0
LINE
8
0
10
179.2425122
20
-138.345254
11
195.1028985
21
-145.7410735
0
LINE
8
0
10
195.1028985
20
-145.7410735
11
202.0760998
21
-130.786995
0
LINE
8
0
10
202.0760998
20
-130.786995
11
186.2157135
21
-123.3911755
0
LINE
8
0
10
186.2157135
20
-123.3911755
11
179.2425122
21
-138.345254
0
ENDSEC
0
EOF