0
SECTION
2
HEADER
9
$INSUNITS
70
4
0
ENDSEC
0
SECTION
2
TABLES
0
TABLE
2
LTYPE
0
LTYPE
72
65
70
64
2
CONTINUOUS
3
______
73
0
40
0
0
ENDTAB
0
TABLE
2
LAYER
0
ENDTAB
0
ENDSEC
0
SECTION
2
ENTITIES
0
LINE
8
0
10
110.5868241
20
-98.29313
11
126.2269604
21
-101.050908
0
LINE
8
0
10
126.8061884
20
-100.6453282
11
126.9798366
21
-99.6605205
0
LINE
8
0
10
116.5846581
20
-43.4390974
11
119.0917576
21
-29.2206298
0
LINE
8
0
10
136.4127173
20
-31.767069
11
119.6709856
21
-28.81505
0
LINE
8
0
10
127.5590646
20
-99.2549407
11
142.3311809
21
-101.8596634
0
LINE
8
0
10
156.6881003
20
-34.8344527
11
156.8617485
21
-33.849645
0
LINE
8
0
10
156.4561687
20
-33.270417
11
137.7448215
21
-29.9711017
0
LINE
8
0
10
137.1655935
20
-30.3766815
11
136.9919453
21
-31.3614892
0
LINE
8
0
10
142.9686923
20
-104.0029271
11
152.5963168
21
-105.700537
0
LINE
8
0
10
142.7367607
20
-102.4388914
11
142.5631125
21
-103.4236991
0
LINE
8
0
10
174.0673435
20
-39.9297354
11
174.2409917
21
-38.9449277
0
LINE
8
0
10
173.8354119
20
-38.3656997
11
157.0936801
21
-35.4136807
0
LINE
8
0
10
182.8523327
20
-93.7654552
11
191.6202349
21
-44.0402104
0
LINE
8
0
10
191.2146551
20
-43.4609824
11
174.4729233
21
-40.5089634
0
LINE
8
0
10
145.4074282
20
-123.9469176
11
195.2543565
21
-147.190922
0
LINE
8
0
10
149.1727883
20
-114.6889762
11
145.1655834
21
-123.2824546
0
LINE
8
0
10
149.1729218
20
-114.6886895
11
149.1727883
21
-114.6889762
0
LINE
8
0
10
193.8428603
20
-121.8234664
11
201.4947027
21
-105.4140374
0
LINE
8
0
10
183.7915535
20
-96.6072345
11
201.2528579
21
-104.7495744
0
LINE
8
0
10
195.9188195
20
-146.9490772
11
203.5706619
21
-130.5396482
0
ARC
8
0
10
126.3137845
20
-100.5585041
40
0.5
50
259.9999992
51
349.9999992
0
ARC
8
0
10
127.4722405
20
-99.7473446
40
0.5
50
79.9999992
51
169.9999992
0
ARC
8
0
10
142.2443568
20
-102.3520673
40
0.5
50
349.9999992
51
79.9999992
0
ARC
8
0
10
143.0555164
20
-103.5105232
40
0.5
50
169.9999992
51
259.9999992
0
ARC
8
0
10
201.0415488
20
-105.2027283
40
0.5
50
334.9999983
51
64.9999983
0
ARC
8
0
10
191.127831
20
-43.9533863
40
0.5
50
349.9999992
51
79.9999992
0
ARC
8
0
10
174.5597474
20
-40.0165595
40
0.5
50
169.9999992
51
259.9999992
0
ARC
8
0
10
173.7485878
20
-38.8581036
40
0.5
50
349.9999992
51
79.9999992
0
ARC
8
0
10
157.1805042
20
-34.9212768
40
0.5
50
169.9999992
51
259.9999992
0
ARC
8
0
10
156.3693446
20
-33.7628209
40
0.5
50
349.9999992
51
79.9999992
0
ARC
8
0
10
137.6579974
20
-30.4635056
40
0.5
50
79.9999992
51
169.9999992
0
ARC
8
0
10
136.4995414
20
-31.2746651
40
0.5
50
259.9999992
51
349.9999992
0
ARC
8
0
10
119.5841615
20
-29.3074539
40
0.5
50
79.9999992
51
169.9999992
0
ARC
8
0
10
195.4656656
20
-146.7377681
40
0.5
50
244.9999983
51
334.9999983
0
ARC
8
0
10
145.6187373
20
-123.4937637
40
0.5
50
154.9999983
51
244.9999983
0
LINE
8
0
10
90.5
20
-109.5
11
109.5
21
-109.5
0
LINE
8
0
10
110
20
-109
11
110
21
-98.7855339
0
LINE
8
0
10
110
20
-45.6469598
11
110
21
-40
0
LINE
8
0
10
90
20
-109
11
90
21
-40
0
LINE
8
0
10
109.5
20
-39.5
11
90.5
21
-39.5
0
ARC
8
0
10
109.5
20
-109
40
0.5
50
270
51
0
0
ARC
8
0
10
109.5
20
-40
40
0.5
50
0
51
90
0
ARC
8
0
10
90.5
20
-40
40
0.5
50
90
51
180
0
ARC
8
0
10
90.5
20
-109
40
0.5
50
180
51
270
0
ARC
8
0
10
110.5
20
-98.7855339
40
0.5
50
79.9999992
51
180
0
LINE
8
0
10
110
20
-45.6469598
11
116.5846581
21
-43.4390974
0
LINE
8
0
10
182.8638185
20
-93.8211044
11
183.5197181
21
-96.2828102
0
LINE
8
0
10
193.9847859
20
-122.4261028
11
203.4287363
21
-129.9370118
0
LINE
8
0
10
149.1869136
20
-114.6555718
11
152.5963168
21
-105.700537
0
ARC
8
0
10
183.3469631
20
-93.6923748
40
0.5
50
188.4045047
51
194.9193529
0
ARC
8
0
10
184.0028627
20
-96.1540806
40
0.5
50
194.9193529
51
244.9999983
0
ARC
8
0
10
194.2960142
20
-122.0347755
40
0.5
50
154.9999983
51
231.5042643
0
ARC
8
0
10
203.117508
20
-130.3283391
40
0.5
50
334.9999983
51
51.5042643
0
ARC
8
0
10
148.7196344
20
-114.477667
40
0.5
50
335.0362336
51
339.156935
0
LINE
8
0
10
93.05
20
-107.05
11
106.95
21
-107.05
0
LINE
8
0
10
106.95
20
-107.05
11
106.95
21
-92.95
0
LINE
8
0
10
106.95
20
-92.95
11
93.05
21
-92.95
0
LINE
8
0
10
93.05
20
-92.95
11
93.05
21
-107.05
0
LINE
8
0
10
93.05
20
-90.05
11
106.95
21
-90.05
0
LINE
8
0
10
106.95
20
-90.05
11
106.95
21
-75.95
0
LINE
8
0
10
106.95
20
-75.95
11
93.05
21
-75.95
0
LINE
8
0
10
93.05
20
-75.95
11
93.05
21
-90.05
0
LINE
8
0
10
93.05
20
-73.05
11
106.95
21
-73.05
0
LINE
8
0
10
106.95
20
-73.05
11
106.95
21
-58.95
0
LINE
8
0
10
106.95
20
-58.95
11
93.05
21
-58.95
0
LINE
8
0
10
93.05
20
-58.95
11
93.05
21
-73.05
0
LINE
8
0
10
93.05
20
-56.05
11
106.95
21
-56.05
0
LINE
8
0
10
106.95
20
-56.05
11
106.95
21
-41.95
0
LINE
8
0
10
106.95
20
-41.95
11
93.05
21
-41.95
0
LINE
8
0
10
93.05
20
-41.95
11
93.05
21
-56.05
0
LINE
8
0
10
110.452311
20
-95.7816165
11
124.1411387
21
-98.1953262
0
LINE
8
0
10
124.1411387
20
-98.1953262
11
126.589578
21
-84.3095369
0
LINE
8
0
10
126.589578
20
-84.3095369
11
112.9007503
21
-81.8958272
0
LINE
8
0
10
112.9007503
20
-81.8958272
11
110.452311
21
-95.7816165
0
LINE
8
0
10
113.40433
20
-79.0398847
11
127.0931577
21
-81.4535944
0
LINE
8
0
10
127.0931577
20
-81.4535944
11
129.541597
21
-67.5678051
0
LINE
8
0
10
129.541597
20
-67.5678051
11
115.8527693
21
-65.1540954
0
LINE
8
0
10
115.8527693
20
-65.1540954
11
113.40433
21
-79.0398847
0
LINE
8
0
10
116.356349
20
-62.2981529
11
130.0451767
21
-64.7118626
0
LINE
8
0
10
130.0451767
20
-64.7118626
11
132.493616
21
-50.8260733
0
LINE
8
0
10
132.493616
20
-50.8260733
11
118.8047883
21
-48.4123636
0
LINE
8
0
10
118.8047883
20
-48.4123636
11
116.356349
21
-62.2981529
0
LINE
8
0
10
119.308368
20
-45.5564211
11
132.9971957
21
-47.9701308
0
LINE
8
0
10
132.9971957
20
-47.9701308
11
135.445635
21
-34.0843415
0
LINE
8
0
10
135.445635
20
-34.0843415
11
121.7568073
21
-31.6706318
0
LINE
8
0
10
121.7568073
20
-31.6706318
11
119.308368
21
-45.5564211
0
LINE
8
0
10
128.5261469
20
-96.9376682
11
142.2149746
21
-99.3513779
0
LINE
8
0
10
142.2149746
20
-99.3513779
11
144.6634139
21
-85.4655886
0
LINE
8
0
10
144.6634139
20
-85.4655886
11
130.9745862
21
-83.0518789
0
LINE
8
0
10
130.9745862
20
-83.0518789
11
128.5261469
21
-96.9376682
0
LINE
8
0
10
131.4781659
20
-80.1959364
11
145.1669936
21
-82.6096461
0
LINE
8
0
10
145.1669936
20
-82.6096461
11
147.6154329
21
-68.7238568
0
LINE
8
0
10
147.6154329
20
-68.7238568
11
133.9266052
21
-66.3101471
0
LINE
8
0
10
133.9266052
20
-66.3101471
11
131.4781659
21
-80.1959364
0
LINE
8
0
10
134.4301849
20
-63.4542046
11
148.1190126
21
-65.8679143
0
LINE
8
0
10
148.1190126
20
-65.8679143
11
150.5674519
21
-51.982125
0
LINE
8
0
10
150.5674519
20
-51.982125
11
136.8786242
21
-49.5684153
0
LINE
8
0
10
136.8786242
20
-49.5684153
11
134.4301849
21
-63.4542046
0
LINE
8
0
10
137.3822039
20
-46.7124728
11
151.0710316
21
-49.1261825
0
LINE
8
0
10
151.0710316
20
-49.1261825
11
153.5194709
21
-35.2403932
0
LINE
8
0
10
153.5194709
20
-35.2403932
11
139.8306432
21
-32.8266835
0
LINE
8
0
10
139.8306432
20
-32.8266835
11
137.3822039
21
-46.7124728
0
LINE
8
0
10
145.9053901
20
-102.0329509
11
159.5942178
21
-104.4466606
0
LINE
8
0
10
159.5942178
20
-104.4466606
11
162.0426571
21
-90.5608713
0
LINE
8
0
10
162.0426571
20
-90.5608713
11
148.3538294
21
-88.1471616
0
LINE
8
0
10
148.3538294
20
-88.1471616
11
145.9053901
21
-102.0329509
0
LINE
8
0
10
148.8574091
20
-85.2912191
11
162.5462368
21
-87.7049288
0
LINE
8
0
10
162.5462368
20
-87.7049288
11
164.9946761
21
-73.8191395
0
LINE
8
0
10
164.9946761
20
-73.8191395
11
151.3058484
21
-71.4054298
0
LINE
8
0
10
151.3058484
20
-71.4054298
11
148.8574091
21
-85.2912191
0
LINE
8
0
10
151.8094281
20
-68.5494873
11
165.4982558
21
-70.963197
0
LINE
8
0
10
165.4982558
20
-70.963197
11
167.9466951
21
-57.0774077
0
LINE
8
0
10
167.9466951
20
-57.0774077
11
154.2578674
21
-54.663698
0
LINE
8
0
10
154.2578674
20
-54.663698
11
151.8094281
21
-68.5494873
0
LINE
8
0
10
154.7614471
20
-51.8077555
11
168.4502748
21
-54.2214652
0
LINE
8
0
10
168.4502748
20
-54.2214652
11
170.8987141
21
-40.3356759
0
LINE
8
0
10
170.8987141
20
-40.3356759
11
157.2098864
21
-37.9219662
0
LINE
8
0
10
157.2098864
20
-37.9219662
11
154.7614471
21
-51.8077555
0
LINE
8
0
10
163.2846333
20
-107.1282336
11
176.973461
21
-109.5419433
0
LINE
8
0
10
176.973461
20
-109.5419433
11
179.4219003
21
-95.656154
0
LINE
8
0
10
179.4219003
20
-95.656154
11
165.7330726
21
-93.2424443
0
LINE
8
0
10
165.7330726
20
-93.2424443
11
163.2846333
21
-107.1282336
0
LINE
8
0
10
182.3739193
20
-78.9144222
11
168.6850916
21
-76.5007125
0
LINE
8
0
10
168.6850916
20
-76.5007125
11
166.2366523
21
-90.3865018
0
LINE
8
0
10
166.2366523
20
-90.3865018
11
179.92548
21
-92.8002115
0
LINE
8
0
10
179.92548
20
-92.8002115
11
182.3739193
21
-78.9144222
0
LINE
8
0
10
169.1886713
20
-73.64477
11
182.877499
21
-76.0584797
0
LINE
8
0
10
182.877499
20
-76.0584797
11
185.3259383
21
-62.1726904
0
LINE
8
0
10
185.3259383
20
-62.1726904
11
171.6371106
21
-59.7589807
0
LINE
8
0
10
171.6371106
20
-59.7589807
11
169.1886713
21
-73.64477
0
LINE
8
0
10
172.1406903
20
-56.9030382
11
185.829518
21
-59.3167479
0
LINE
8
0
10
185.829518
20
-59.3167479
11
188.2779573
21
-45.4309586
0
LINE
8
0
10
188.2779573
20
-45.4309586
11
174.5891296
21
-43.0172489
0
LINE
8
0
10
174.5891296
20
-43.0172489
11
172.1406903
21
-56.9030382
0
LINE
8
0
10
148.7539278
20
-122.8041401
11
161.3516061
21
-128.6785339
0
LINE
8
0
10
161.3516061
20
-128.6785339
11
167.3105236
21
-115.8995941
0
LINE
8
0
10
167.3105236
20
-115.8995941
11
154.7128453
21
-110.0252003
0
LINE
8
0
10
154.7128453
20
-110.0252003
11
148.7539278
21
-122.8041401
0
LINE
8
0
10
165.067468
20
-130.4112688
11
177.6651463
21
-136.2856626
0
LINE
8
0
10
177.6651463
20
-136.2856626
11
183.6240638
21
-123.5067228
0
LINE
8
0
10
183.6240638
20
-123.5067228
11
171.0263855
21
-117.632329
0
LINE
8
0
10
171.0263855
20
-117.632329
11
165.067468
21
-130.4112688
0
LINE
8
0
10
179.3497625
20
-112.7968979
11
191.9474408
21
-118.6712917
0
LINE
8
0
10
191.9474408
20
-118.6712917
11
197.9063583
21
-105.8923519
0
LINE
8
0
10
197.9063583
20
-105.8923519
11
185.30868
21
-100.0179581
0
LINE
8
0
10
185.30868
20
-100.0179581
11
179.3497625
21
-112.7968979
0
LINE
8
0
10
181.3810081
20
-138.0183975
11
193.9786864
21
-143.8927913
0
LINE
8
0
10
193.9786864
20
-143.8927913
11
199.9376039
21
-131.1138515
0
LINE
8
0
10
199.9376039
20
-131.1138515
11
187.3399256
21
-125.2394577
0
LINE
8
0
10
187.3399256
20
-125.2394577
11
181.3810081
21
-138.0183975
0
ENDSEC
0
EOF