0
SECTION
2
HEADER
9
$INSUNITS
70
4
0
ENDSEC
0
SECTION
2
TABLES
0
TABLE
2
LTYPE
0
LTYPE
72
65
70
64
2
CONTINUOUS
3
______
73
0
40
0
0
ENDTAB
0
TABLE
2
LAYER
0
ENDTAB
0
ENDSEC
0
SECTION
2
ENTITIES
0
LINE
8
0
10
110.5435778
20
-98.8724765
11
126.8973373
21
-100.3032451
0
LINE
8
0
10
127.4390125
20
-99.8487257
11
127.5800275
21
-98.2369159
0
LINE
8
0
10
112.2745266
20
-43.7053268
11
113.5288647
21
-29.3681764
0
LINE
8
0
10
132.7384828
20
-39.2755012
11
133.4527586
21
-31.1112913
0
LINE
8
0
10
132.9982392
20
-30.5696161
11
114.0705399
21
-28.913657
0
LINE
8
0
10
128.164949
20
-97.7880899
11
142.1036838
21
-100.2458649
0
LINE
8
0
10
135.0815548
20
-39.2918538
11
136.9380964
21
-28.762883
0
LINE
8
0
10
156.4606033
20
-33.2206541
11
156.6342514
21
-32.2358465
0
LINE
8
0
10
156.2286716
20
-31.6566185
11
137.5173244
21
-28.3573032
0
LINE
8
0
10
142.7411952
20
-102.3891285
11
152.3688196
21
-104.0867384
0
LINE
8
0
10
142.5092636
20
-100.8250929
11
142.3356154
21
-101.8099005
0
LINE
8
0
10
173.8398464
20
-38.3159369
11
174.0134946
21
-37.3311291
0
LINE
8
0
10
173.6079148
20
-36.7519011
11
156.8661831
21
-33.7998821
0
LINE
8
0
10
182.6235977
20
-92.158676
11
191.3927377
21
-42.4264119
0
LINE
8
0
10
190.9871579
20
-41.8471839
11
174.2454262
21
-38.8951649
0
LINE
8
0
10
145.179931
20
-122.3331191
11
195.0268593
21
-145.5771235
0
LINE
8
0
10
148.9452911
20
-113.0751777
11
144.9380862
21
-121.6686561
0
LINE
8
0
10
148.9454246
20
-113.074891
11
148.9452911
21
-113.0751777
0
LINE
8
0
10
193.1637128
20
-119.9951342
11
200.8140516
21
-103.5889298
0
LINE
8
0
10
183.1543706
20
-94.8023964
11
200.5722068
21
-102.9244668
0
LINE
8
0
10
195.6913223
20
-145.3352787
11
203.3416611
21
-128.9290743
0
ARC
8
0
10
126.9409152
20
-99.8051478
40
0.5
50
265.0000024
51
355.0000024
0
ARC
8
0
10
128.0781249
20
-98.2804938
40
0.5
50
79.9999992
51
175.0000024
0
ARC
8
0
10
142.0168597
20
-100.7382688
40
0.5
50
349.9999992
51
79.9999992
0
ARC
8
0
10
142.8280193
20
-101.8967246
40
0.5
50
169.9999992
51
259.9999992
0
ARC
8
0
10
200.3608977
20
-103.3776207
40
0.5
50
334.9999983
51
64.9999983
0
ARC
8
0
10
190.9003338
20
-42.3395878
40
0.5
50
349.9999992
51
79.9999992
0
ARC
8
0
10
174.3322503
20
-38.402761
40
0.5
50
169.9999992
51
259.9999992
0
ARC
8
0
10
173.5210907
20
-37.244305
40
0.5
50
349.9999992
51
79.9999992
0
ARC
8
0
10
156.9530072
20
-33.3074782
40
0.5
50
169.9999992
51
259.9999992
0
ARC
8
0
10
156.1418475
20
-32.1490224
40
0.5
50
349.9999992
51
79.9999992
0
ARC
8
0
10
137.4305003
20
-28.8497071
40
0.5
50
79.9999992
51
169.9999992
0
ARC
8
0
10
132.9546613
20
-31.0677134
40
0.5
50
355.0000024
51
85.0000024
0
ARC
8
0
10
114.026962
20
-29.4117543
40
0.5
50
85.0000024
51
175.0000024
0
ARC
8
0
10
195.2381684
20
-145.1239696
40
0.5
50
244.9999983
51
334.9999983
0
ARC
8
0
10
145.3912401
20
-121.8799652
40
0.5
50
154.9999983
51
244.9999983
0
LINE
8
0
10
90.5
20
-109.5
11
109.5
21
-109.5
0
LINE
8
0
10
110
20
-109
11
110
21
-99.3705738
0
LINE
8
0
10
110
20
-44.6864543
11
110
21
-40
0
LINE
8
0
10
90
20
-109
11
90
21
-40
0
LINE
8
0
10
109.5
20
-39.5
11
90.5
21
-39.5
0
ARC
8
0
10
109.5
20
-109
40
0.5
50
270
51
0
0
ARC
8
0
10
109.5
20
-40
40
0.5
50
0
51
90
0
ARC
8
0
10
90.5
20
-40
40
0.5
50
90
51
180
0
ARC
8
0
10
90.5
20
-109
40
0.5
50
180
51
270
0
ARC
8
0
10
110.5
20
-99.3705738
40
0.5
50
85.0000024
51
180
0
LINE
8
0
10
110
20
-44.6864543
11
112.2745266
21
-43.7053268
0
LINE
8
0
10
132.7384828
20
-39.2755012
11
135.0815548
21
-39.2918538
0
LINE
8
0
10
182.6247773
20
-92.1708542
11
182.8686357
21
-94.4035309
0
LINE
8
0
10
193.309073
20
-120.6004777
11
203.1963009
21
-128.3237308
0
LINE
8
0
10
148.9594164
20
-113.0417733
11
152.3688196
21
-104.0867384
0
ARC
8
0
10
183.1218213
20
-92.1165659
40
0.5
50
184.8311847
51
186.2332749
0
ARC
8
0
10
183.3656797
20
-94.3492425
40
0.5
50
186.2332749
51
244.9999983
0
ARC
8
0
10
193.6168667
20
-120.2064434
40
0.5
50
154.9999983
51
232.005385
0
ARC
8
0
10
202.8885072
20
-128.7177651
40
0.5
50
334.9999983
51
52.005385
0
ARC
8
0
10
148.4921372
20
-112.8638685
40
0.5
50
335.0362336
51
339.156935
0
LINE
8
0
10
93.05
20
-107.05
11
106.95
21
-107.05
0
LINE
8
0
10
106.95
20
-107.05
11
106.95
21
-92.95
0
LINE
8
0
10
106.95
20
-92.95
11
93.05
21
-92.95
0
LINE
8
0
10
93.05
20
-92.95
11
93.05
21
-107.05
0
LINE
8
0
10
93.05
20
-90.05
11
106.95
21
-90.05
0
LINE
8
0
10
106.95
20
-90.05
11
106.95
21
-75.95
0
LINE
8
0
10
106.95
20
-75.95
11
93.05
21
-75.95
0
LINE
8
0
10
93.05
20
-75.95
11
93.05
21
-90.05
0
LINE
8
0
10
93.05
20
-73.05
11
106.95
21
-73.05
0
LINE
8
0
10
106.95
20
-73.05
11
106.95
21
-58.95
0
LINE
8
0
10
106.95
20
-58.95
11
93.05
21
-58.95
0
LINE
8
0
10
93.05
20
-58.95
11
93.05
21
-73.05
0
LINE
8
0
10
93.05
20
-56.05
11
106.95
21
-56.05
0
LINE
8
0
10
106.95
20
-56.05
11
106.95
21
-41.95
0
LINE
8
0
10
106.95
20
-41.95
11
93.05
21
-41.95
0
LINE
8
0
10
93.05
20
-41.95
11
93.05
21
-56.05
0
LINE
8
0
10
110.7234661
20
-96.4288561
11
124.5705724
21
-97.6403209
0
LINE
8
0
10
124.5705724
20
-97.6403209
11
125.7994683
21
-83.5939757
0
LINE
8
0
10
125.7994683
20
-83.5939757
11
111.952362
21
-82.3825109
0
LINE
8
0
10
111.952362
20
-82.3825109
11
110.7234661
21
-96.4288561
0
LINE
8
0
10
112.2051137
20
-79.4935462
11
126.05222
21
-80.705011
0
LINE
8
0
10
126.05222
20
-80.705011
11
127.2811159
21
-66.6586658
0
LINE
8
0
10
127.2811159
20
-66.6586658
11
113.4340096
21
-65.447201
0
LINE
8
0
10
113.4340096
20
-65.447201
11
112.2051137
21
-79.4935462
0
LINE
8
0
10
113.6867613
20
-62.5582363
11
127.5338676
21
-63.7697011
0
LINE
8
0
10
127.5338676
20
-63.7697011
11
128.7627635
21
-49.7233559
0
LINE
8
0
10
128.7627635
20
-49.7233559
11
114.9156572
21
-48.5118911
0
LINE
8
0
10
114.9156572
20
-48.5118911
11
113.6867613
21
-62.5582363
0
LINE
8
0
10
115.1684089
20
-45.6229264
11
129.0155152
21
-46.8343912
0
LINE
8
0
10
129.0155152
20
-46.8343912
11
130.2444111
21
-32.788046
0
LINE
8
0
10
130.2444111
20
-32.788046
11
116.3973048
21
-31.5765812
0
LINE
8
0
10
116.3973048
20
-31.5765812
11
115.1684089
21
-45.6229264
0
LINE
8
0
10
128.2986498
20
-95.3238697
11
141.9874775
21
-97.7375794
0
LINE
8
0
10
141.9874775
20
-97.7375794
11
144.4359168
21
-83.8517901
0
LINE
8
0
10
144.4359168
20
-83.8517901
11
130.7470891
21
-81.4380804
0
LINE
8
0
10
130.7470891
20
-81.4380804
11
128.2986498
21
-95.3238697
0
LINE
8
0
10
131.2506688
20
-78.5821379
11
144.9394965
21
-80.9958476
0
LINE
8
0
10
144.9394965
20
-80.9958476
11
147.3879358
21
-67.1100583
0
LINE
8
0
10
147.3879358
20
-67.1100583
11
133.6991081
21
-64.6963486
0
LINE
8
0
10
133.6991081
20
-64.6963486
11
131.2506688
21
-78.5821379
0
LINE
8
0
10
134.2026878
20
-61.8404061
11
147.8915155
21
-64.2541158
0
LINE
8
0
10
147.8915155
20
-64.2541158
11
150.3399548
21
-50.3683265
0
LINE
8
0
10
150.3399548
20
-50.3683265
11
136.6511271
21
-47.9546168
0
LINE
8
0
10
136.6511271
20
-47.9546168
11
134.2026878
21
-61.8404061
0
LINE
8
0
10
137.1547068
20
-45.0986743
11
150.8435345
21
-47.512384
0
LINE
8
0
10
150.8435345
20
-47.512384
11
153.2919738
21
-33.6265947
0
LINE
8
0
10
153.2919738
20
-33.6265947
11
139.6031461
21
-31.212885
0
LINE
8
0
10
139.6031461
20
-31.212885
11
137.1547068
21
-45.0986743
0
LINE
8
0
10
145.677893
20
-100.4191523
11
159.3667207
21
-102.832862
0
LINE
8
0
10
159.3667207
20
-102.832862
11
161.81516
21
-88.9470727
0
LINE
8
0
10
161.81516
20
-88.9470727
11
148.1263323
21
-86.533363
0
LINE
8
0
10
148.1263323
20
-86.533363
11
145.677893
21
-100.4191523
0
LINE
8
0
10
148.629912
20
-83.6774205
11
162.3187397
21
-86.0911302
0
LINE
8
0
10
162.3187397
20
-86.0911302
11
164.767179
21
-72.2053409
0
LINE
8
0
10
164.767179
20
-72.2053409
11
151.0783513
21
-69.7916312
0
LINE
8
0
10
151.0783513
20
-69.7916312
11
148.629912
21
-83.6774205
0
LINE
8
0
10
151.581931
20
-66.9356887
11
165.2707587
21
-69.3493984
0
LINE
8
0
10
165.2707587
20
-69.3493984
11
167.719198
21
-55.4636091
0
LINE
8
0
10
167.719198
20
-55.4636091
11
154.0303703
21
-53.0498994
0
LINE
8
0
10
154.0303703
20
-53.0498994
11
151.581931
21
-66.9356887
0
LINE
8
0
10
154.53395
20
-50.1939569
11
168.2227777
21
-52.6076666
0
LINE
8
0
10
168.2227777
20
-52.6076666
11
170.671217
21
-38.7218773
0
LINE
8
0
10
170.671217
20
-38.7218773
11
156.9823893
21
-36.3081676
0
LINE
8
0
10
156.9823893
20
-36.3081676
11
154.53395
21
-50.1939569
0
LINE
8
0
10
163.0571361
20
-105.5144351
11
176.7459638
21
-107.9281448
0
LINE
8
0
10
176.7459638
20
-107.9281448
11
179.1944031
21
-94.0423555
0
LINE
8
0
10
179.1944031
20
-94.0423555
11
165.5055754
21
-91.6286458
0
LINE
8
0
10
165.5055754
20
-91.6286458
11
163.0571361
21
-105.5144351
0
LINE
8
0
10
182.1464221
20
-77.3006237
11
168.4575944
21
-74.886914
0
LINE
8
0
10
168.4575944
20
-74.886914
11
166.0091551
21
-88.7727033
0
LINE
8
0
10
166.0091551
20
-88.7727033
11
179.6979828
21
-91.186413
0
LINE
8
0
10
179.6979828
20
-91.186413
11
182.1464221
21
-77.3006237
0
LINE
8
0
10
168.9611741
20
-72.0309715
11
182.6500018
21
-74.4446812
0
LINE
8
0
10
182.6500018
20
-74.4446812
11
185.0984411
21
-60.5588919
0
LINE
8
0
10
185.0984411
20
-60.5588919
11
171.4096134
21
-58.1451822
0
LINE
8
0
10
171.4096134
20
-58.1451822
11
168.9611741
21
-72.0309715
0
LINE
8
0
10
171.9131931
20
-55.2892397
11
185.6020208
21
-57.7029494
0
LINE
8
0
10
185.6020208
20
-57.7029494
11
188.0504601
21
-43.8171601
0
LINE
8
0
10
188.0504601
20
-43.8171601
11
174.3616324
21
-41.4034504
0
LINE
8
0
10
174.3616324
20
-41.4034504
11
171.9131931
21
-55.2892397
0
LINE
8
0
10
148.5264306
20
-121.1903416
11
161.1241089
21
-127.0647354
0
LINE
8
0
10
161.1241089
20
-127.0647354
11
167.0830264
21
-114.2857956
0
LINE
8
0
10
167.0830264
20
-114.2857956
11
154.4853481
21
-108.4114018
0
LINE
8
0
10
154.4853481
20
-108.4114018
11
148.5264306
21
-121.1903416
0
LINE
8
0
10
164.8399708
20
-128.7974703
11
177.4376491
21
-134.6718641
0
LINE
8
0
10
177.4376491
20
-134.6718641
11
183.3965666
21
-121.8929243
0
LINE
8
0
10
183.3965666
20
-121.8929243
11
170.7988883
21
-116.0185305
0
LINE
8
0
10
170.7988883
20
-116.0185305
11
164.8399708
21
-128.7974703
0
LINE
8
0
10
178.6691114
20
-110.9717903
11
191.2667897
21
-116.8461841
0
LINE
8
0
10
191.2667897
20
-116.8461841
11
197.2257072
21
-104.0672443
0
LINE
8
0
10
197.2257072
20
-104.0672443
11
184.6280289
21
-98.1928505
0
LINE
8
0
10
184.6280289
20
-98.1928505
11
178.6691114
21
-110.9717903
0
LINE
8
0
10
181.1535109
20
-136.404599
11
193.7511892
21
-142.2789928
0
LINE
8
0
10
193.7511892
20
-142.2789928
11
199.7101067
21
-129.500053
0
LINE
8
0
10
199.7101067
20
-129.500053
11
187.1124284
21
-123.6256592
0
LINE
8
0
10
187.1124284
20
-123.6256592
11
181.1535109
21
-136.404599
0
ENDSEC
0
EOF