0
SECTION
2
HEADER
9
$INSUNITS
70
4
0
ENDSEC
0
SECTION
2
TABLES
0
TABLE
2
LTYPE
0
LTYPE
72
65
70
64
2
CONTINUOUS
3
______
73
0
40
0
0
ENDTAB
0
TABLE
2
LAYER
0
ENDTAB
0
ENDSEC
0
SECTION
2
ENTITIES
0
LINE
8
0
10
90.5
20
-109.5
11
109.5
21
-109.5
0
LINE
8
0
10
110
20
-109
11
110
21
-98.7855339
0
LINE
8
0
10
90
20
-109
11
90
21
-40
0
LINE
8
0
10
110
20
-80.7825498
11
110
21
-40
0
LINE
8
0
10
109.5
20
-39.5
11
90.5
21
-39.5
0
LINE
8
0
10
110.5868241
20
-98.29313
11
126.2269604
21
-101.050908
0
LINE
8
0
10
126.8061884
20
-100.6453282
11
126.9798366
21
-99.6605205
0
LINE
8
0
10
110
20
-80.7825498
11
119.0917576
21
-29.2206298
0
LINE
8
0
10
136.4127173
20
-31.767069
11
119.6709856
21
-28.81505
0
LINE
8
0
10
127.5590646
20
-99.2549407
11
142.3311809
21
-101.8596634
0
LINE
8
0
10
156.6881003
20
-34.8344527
11
156.8617485
21
-33.849645
0
LINE
8
0
10
156.4561687
20
-33.270417
11
137.7448215
21
-29.9711017
0
LINE
8
0
10
137.1655935
20
-30.3766815
11
136.9919453
21
-31.3614892
0
LINE
8
0
10
142.9686923
20
-104.0029271
11
159.7104241
21
-106.9549461
0
LINE
8
0
10
142.7367607
20
-102.4388914
11
142.5631125
21
-103.4236991
0
LINE
8
0
10
174.0673435
20
-39.9297354
11
174.2409917
21
-38.9449277
0
LINE
8
0
10
173.8354119
20
-38.3656997
11
157.0936801
21
-35.4136807
0
LINE
8
0
10
160.3479355
20
-109.0982098
11
179.0592827
21
-112.3975251
0
LINE
8
0
10
179.6385107
20
-111.9919453
11
191.6202349
21
-44.0402104
0
LINE
8
0
10
160.1160039
20
-107.5341741
11
159.9423557
21
-108.5189818
0
LINE
8
0
10
191.2146551
20
-43.4609824
11
174.4729233
21
-40.5089634
0
ARC
8
0
10
109.5
20
-109
40
0.5
50
270
51
0
0
ARC
8
0
10
110.5
20
-98.7855339
40
0.5
50
79.9999992
51
180
0
ARC
8
0
10
126.3137845
20
-100.5585041
40
0.5
50
259.9999992
51
349.9999992
0
ARC
8
0
10
127.4722405
20
-99.7473446
40
0.5
50
79.9999992
51
169.9999992
0
ARC
8
0
10
142.2443568
20
-102.3520673
40
0.5
50
349.9999992
51
79.9999992
0
ARC
8
0
10
143.0555164
20
-103.5105232
40
0.5
50
169.9999992
51
259.9999992
0
ARC
8
0
10
159.6236
20
-107.44735
40
0.5
50
349.9999992
51
79.9999992
0
ARC
8
0
10
160.4347596
20
-108.6058059
40
0.5
50
169.9999992
51
259.9999992
0
ARC
8
0
10
179.1461068
20
-111.9051212
40
0.5
50
259.9999992
51
349.9999992
0
ARC
8
0
10
191.127831
20
-43.9533863
40
0.5
50
349.9999992
51
79.9999992
0
ARC
8
0
10
174.5597474
20
-40.0165595
40
0.5
50
169.9999992
51
259.9999992
0
ARC
8
0
10
173.7485878
20
-38.8581036
40
0.5
50
349.9999992
51
79.9999992
0
ARC
8
0
10
157.1805042
20
-34.9212768
40
0.5
50
169.9999992
51
259.9999992
0
ARC
8
0
10
156.3693446
20
-33.7628209
40
0.5
50
349.9999992
51
79.9999992
0
ARC
8
0
10
137.6579974
20
-30.4635056
40
0.5
50
79.9999992
51
169.9999992
0
ARC
8
0
10
136.4995414
20
-31.2746651
40
0.5
50
259.9999992
51
349.9999992
0
ARC
8
0
10
119.5841615
20
-29.3074539
40
0.5
50
79.9999992
51
169.9999992
0
ARC
8
0
10
109.5
20
-40
40
0.5
50
0
51
90
0
ARC
8
0
10
90.5
20
-40
40
0.5
50
90
51
180
0
ARC
8
0
10
90.5
20
-109
40
0.5
50
180
51
270
0
ENDSEC
0
EOF